<svg width="512" height="512" version="1.1" xmlns="http://www.w3.org/2000/svg" desc="Created with imagetracer.js version 1.2.6" ><path fill="rgb(233,174,88)" stroke="rgb(233,174,88)" stroke-width="1" opacity="1" d="M 195.5 30 L 316.5 30 L 324.5 32 L 332 38.5 L 336 49.5 L 336 90 L 307 90 L 307 62.5 L 304.5 60 L 207.5 60 L 205 62.5 L 205 90 L 176 90 L 176 49.5 L 178 41.5 L 184.5 34 L 195.5 30 Z " /><path fill="rgb(233,174,88)" stroke="rgb(233,174,88)" stroke-width="1" opacity="1" d="M 79.5 90 L 89.5 90 L 90 90.5 L 90 190 L 70.5 190 L 70 189.5 L 70 99.5 L 74.5 92 L 79.5 90 Z " /><path fill="rgb(248,187,94)" stroke="rgb(248,187,94)" stroke-width="1" opacity="1" d="M 90 90 L 432.5 90 L 436.5 91 L 441 95.5 L 442 99.5 L 442 190 L 341.5 190 L 341 190.5 L 341 219.5 L 338.5 220 L 333 216.5 L 331 212.5 L 331 190 L 151.5 190 L 151 190.5 L 151 219.5 L 148.5 220 L 143 216.5 L 141 212.5 L 141 190 L 90 190 L 90 90 Z " /><path fill="rgb(248,187,94)" stroke="rgb(248,187,94)" stroke-width="1" opacity="1" d="M 178.5 216 L 177.5 218 L 178.5 216 Z " /><path fill="rgb(248,187,94)" stroke="rgb(248,187,94)" stroke-width="1" opacity="1" d="M 368.5 216 L 367.5 218 L 368.5 216 Z " /><path fill="rgb(0,0,0)" stroke="rgb(0,0,0)" stroke-width="1" opacity="0" d="M 0 0 L 235 0.5 L 217.5 2 Q 211 5 201.5 5 Q 175.1 11.1 152.5 21 Q 100.5 44.5 65 84.5 Q 38.2 113.7 21 152.5 Q 11.1 175.1 5 201.5 Q 5 211 2 217.5 L 0.5 235 L 0 0 Z " /><path fill="rgb(0,0,0)" stroke="rgb(0,0,0)" stroke-width="1" opacity="0" d="M 277.5 0 L 512 0 L 512 234.5 L 511 234.5 L 511 225.5 L 510 224.5 L 510 217.5 Q 507 211 507 201.5 Q 500.9 175.1 491 152.5 Q 467.5 100.5 427.5 65 Q 398.3 38.2 359.5 21 L 322.5 8 L 294.5 2 L 277.5 1 L 277.5 0 Z " /><path fill="rgb(0,0,0)" stroke="rgb(0,0,0)" stroke-width="1" opacity="0" d="M 0.5 277 L 2 294.5 Q 5 301 5 310.5 L 16 347.5 L 32 381.5 L 40 393.5 L 40 467.5 L 42.5 470 L 115.5 470 L 130.5 480 L 164.5 496 L 201.5 507 Q 211 507 217.5 510 L 235 511.5 L 0 512 L 0.5 277 Z " /><path fill="rgb(0,0,0)" stroke="rgb(0,0,0)" stroke-width="1" opacity="0" d="M 511.5 277 L 512 512 L 277 511.5 L 294.5 510 Q 301 507 310.5 507 Q 336.9 500.9 359.5 491 Q 411.5 467.5 447 427.5 Q 473.8 398.3 491 359.5 Q 500.9 336.9 507 310.5 Q 507 301 510 294.5 L 511.5 277 Z " /><path fill="rgb(130,143,112)" stroke="rgb(130,143,112)" stroke-width="1" opacity="1" d="M 184.5 33 L 179.5 39 L 184.5 33 Z " /><path fill="rgb(130,143,112)" stroke="rgb(130,143,112)" stroke-width="1" opacity="1" d="M 327.5 33 L 332.5 39 L 327.5 33 Z " /><path fill="rgb(130,143,112)" stroke="rgb(130,143,112)" stroke-width="1" opacity="1" d="M 73.5 92 L 72.5 94 L 73.5 92 Z " /><path fill="rgb(130,143,112)" stroke="rgb(130,143,112)" stroke-width="1" opacity="1" d="M 439.5 366 L 438.5 368 L 439.5 366 Z " /><path fill="rgb(206,144,71)" stroke="rgb(206,144,71)" stroke-width="1" opacity="1" d="M 70 190 L 140.5 190 L 141 190.5 L 141 209 L 98.5 209 L 91 214.5 L 90 217.5 L 90 245 L 70 245 L 70 190 Z " /><path fill="rgb(206,144,71)" stroke="rgb(206,144,71)" stroke-width="1" opacity="1" d="M 181 190 L 330.5 190 L 331 190.5 L 331 209 L 181.5 209 L 181 208.5 L 181 190 Z " /><path fill="rgb(206,144,71)" stroke="rgb(206,144,71)" stroke-width="1" opacity="1" d="M 371 190 L 441.5 190 L 442 190.5 L 442 209 L 371.5 209 L 371 208.5 L 371 190 Z " /><path fill="rgb(179,207,213)" stroke="rgb(179,207,213)" stroke-width="1" opacity="0.996078431372549" d="M 70.5 245 L 295.5 245 L 300 248.5 L 300 280.5 L 299.5 281 L 40.5 281 L 40.5 280 L 63 280 L 63 271.5 L 64.5 271 L 69.5 272 L 74 268.5 L 75 261.5 L 71.5 257 L 65.5 256 L 63 257 Q 61.3 249 65.5 246 L 70.5 245 Z M 90 256 L 88 257 L 83 264 L 84 268 L 90 272 L 96 271 L 99 267 L 98 260 Q 96 255 90 256 Z M 114 256 L 112 257 L 107 264 L 108 268 L 114 272 L 120 271 L 123 267 L 122 260 Q 120 255 114 256 Z " /><path fill="rgb(179,207,213)" stroke="rgb(179,207,213)" stroke-width="1" opacity="0.996078431372549" d="M 174.5 312 L 191 312.5 L 174.5 313 L 174.5 312 Z " /><path fill="rgb(179,207,213)" stroke="rgb(179,207,213)" stroke-width="1" opacity="0.996078431372549" d="M 214.5 328 L 203.5 340 L 214.5 328 Z " /><path fill="rgb(179,207,213)" stroke="rgb(179,207,213)" stroke-width="1" opacity="0.996078431372549" d="M 136.5 413 L 125.5 425 L 136.5 413 Z " /><path fill="rgb(179,207,213)" stroke="rgb(179,207,213)" stroke-width="1" opacity="0.996078431372549" d="M 143.5 440 L 160 440.5 L 143.5 441 L 143.5 440 Z " /><path fill="rgb(140,161,173)" stroke="rgb(140,161,173)" stroke-width="1" opacity="1" d="M 45.5 245 L 70 245.5 Q 65.4 244.9 64 247.5 L 63 257 L 69.5 256 L 74 259.5 L 75 266.5 L 71.5 271 L 65.5 272 L 63 271 L 63 280 L 40 280 L 40 248.5 L 42.5 246 L 45.5 245 Z " /><path fill="rgb(140,161,173)" stroke="rgb(140,161,173)" stroke-width="1" opacity="1" d="M 89.5 256 Q 96.4 255.1 98 259.5 L 99 266.5 L 95.5 271 L 89.5 272 L 84 267.5 L 83 263.5 L 87.5 257 L 89.5 256 Z " /><path fill="rgb(140,161,173)" stroke="rgb(140,161,173)" stroke-width="1" opacity="1" d="M 113.5 256 Q 120.4 255.1 122 259.5 L 123 266.5 L 119.5 271 L 113.5 272 L 108 267.5 L 107 263.5 L 111.5 257 L 113.5 256 Z " /><path fill="rgb(140,161,173)" stroke="rgb(140,161,173)" stroke-width="1" opacity="1" d="M 122.5 328 L 76.5 375 L 122.5 328 Z " /><path fill="rgb(140,161,173)" stroke="rgb(140,161,173)" stroke-width="1" opacity="1" d="M 204.5 343 L 236.5 376 L 204.5 343 Z " /><path fill="rgb(140,161,173)" stroke="rgb(140,161,173)" stroke-width="1" opacity="1" d="M 103.5 377 L 135.5 410 L 103.5 377 Z " /><path fill="rgb(140,161,173)" stroke="rgb(140,161,173)" stroke-width="1" opacity="1" d="M 263.5 378 L 218.5 424 L 263.5 378 Z " /><path fill="rgb(140,161,173)" stroke="rgb(140,161,173)" stroke-width="1" opacity="1" d="M 203.5 413 L 214.5 425 L 203.5 413 Z " /><path fill="rgb(220,160,80)" stroke="rgb(220,160,80)" stroke-width="1" opacity="1" d="M 438.5 92 L 439.5 94 L 438.5 92 Z " /><path fill="rgb(220,160,80)" stroke="rgb(220,160,80)" stroke-width="1" opacity="1" d="M 98.5 209 L 140.5 209 Q 141.5 209 141 213.5 L 145.5 219 L 147.5 220 L 174.5 220 L 180 215.5 L 181 209 L 330.5 209 Q 331.5 209 331 213.5 L 335.5 219 L 337.5 220 L 364.5 220 L 370 215.5 L 371 209 L 442 209 L 442 360.5 L 441 364.5 L 436.5 369 L 432.5 370 L 300 370 L 300 248.5 L 299 246 L 296.5 245 L 90 245 L 90 217.5 L 95.5 210 L 98.5 209 Z " /><path fill="rgb(0,110,102)" stroke="rgb(0,110,102)" stroke-width="1" opacity="0.9882352941176471" d="M 235.5 0 L 276.5 0 L 277.5 1 L 294.5 2 L 322.5 8 L 347.5 16 Q 407.5 40 447 84.5 Q 477.9 118.1 496 164.5 L 504 189.5 L 510 217.5 L 511 234.5 L 512 235.5 L 512 276.5 L 511 277.5 L 510 294.5 L 504 322.5 L 491 359.5 Q 467.5 411.5 427.5 447 Q 393.9 477.9 347.5 496 L 322.5 504 L 294.5 510 L 277.5 511 L 276.5 512 L 235.5 512 L 234.5 511 L 225.5 511 L 224.5 510 L 217.5 510 Q 211 507 201.5 507 L 164.5 496 L 130.5 480 L 116 470.5 L 297.5 470 L 300 467.5 L 300 370 L 435.5 370 L 440 366.5 L 442 363.5 L 442 96.5 L 437.5 91 L 435.5 90 L 336 90 L 336 45.5 Q 333.8 37.1 327.5 33 L 320.5 30 L 191.5 30 Q 183.2 32.1 179 38.5 L 176 45.5 L 176 90 L 76.5 90 L 72 93.5 L 70 96.5 L 70 245 L 44.5 245 L 40 248.5 L 39.5 393 Q 18.9 362.6 8 322.5 L 2 294.5 L 1 277.5 L 0 276.5 L 0 235.5 L 1 234.5 L 2 217.5 L 8 189.5 L 21 152.5 Q 44.5 100.5 84.5 65 Q 113.7 38.2 152.5 21 L 189.5 8 L 217.5 2 L 234.5 1 L 235.5 0 Z " /><path fill="rgb(0,110,102)" stroke="rgb(0,110,102)" stroke-width="1" opacity="0.9882352941176471" d="M 209.5 60 L 302.5 60 L 306 62.5 L 307 64.5 L 307 90 L 205.5 90 L 205 89.5 L 205 64.5 L 207.5 61 L 209.5 60 Z " /><path fill="rgb(0,110,102)" stroke="rgb(0,110,102)" stroke-width="1" opacity="0.9882352941176471" d="M 126.5 329 L 135.5 339 L 126.5 329 Z " /><path fill="rgb(0,110,102)" stroke="rgb(0,110,102)" stroke-width="1" opacity="0.9882352941176471" d="M 136.5 342 L 103.5 376 L 136.5 342 Z " /><path fill="rgb(0,110,102)" stroke="rgb(0,110,102)" stroke-width="1" opacity="0.9882352941176471" d="M 255.5 366 L 263.5 375 L 255.5 366 Z " /><path fill="rgb(0,110,102)" stroke="rgb(0,110,102)" stroke-width="1" opacity="0.9882352941176471" d="M 76.5 378 L 121.5 424 L 76.5 378 Z " /><path fill="rgb(254,244,238)" stroke="rgb(254,244,238)" stroke-width="1" opacity="1" d="M 151 190 L 181 190 L 181 212.5 L 175.5 219 L 173.5 220 L 151 220 L 151 190 Z " /><path fill="rgb(254,244,238)" stroke="rgb(254,244,238)" stroke-width="1" opacity="1" d="M 341 190 L 371 190 L 371 212.5 L 365.5 219 L 363.5 220 L 341 220 L 341 190 Z " /><path fill="rgb(254,244,238)" stroke="rgb(254,244,238)" stroke-width="1" opacity="1" d="M 40 281 L 300 281 L 300 466.5 L 296.5 470 L 42.5 470 L 40 467.5 L 40 281 Z M 175 312 L 172 315 L 170 322 L 152 397 L 141 437 Q 141 440 144 441 L 160 441 L 162 440 L 193 319 L 193 313 L 191 312 L 175 312 Z M 123 328 L 75 376 L 75 378 L 123 425 L 126 425 L 137 414 L 137 411 L 103 377 L 138 341 L 126 328 L 123 328 Z M 215 328 L 203 340 L 203 343 L 237 377 L 202 413 L 215 425 L 218 425 L 265 378 L 265 376 L 218 328 L 215 328 Z " /><path fill="rgb(0,60,121)" stroke="rgb(0,60,121)" stroke-width="1" opacity="1" d="M 174.5 313 L 191.5 313 L 193 314.5 L 162 438.5 L 160.5 440 L 143.5 440 L 142 438.5 L 172 316.5 L 174.5 313 Z " /><path fill="rgb(0,60,121)" stroke="rgb(0,60,121)" stroke-width="1" opacity="1" d="M 123.5 328 L 137 340.5 L 103 375.5 L 103 377.5 L 137 411.5 L 136 412.5 L 124.5 425 L 76 377.5 L 76 375.5 L 123.5 328 Z " /><path fill="rgb(0,60,121)" stroke="rgb(0,60,121)" stroke-width="1" opacity="1" d="M 215.5 328 L 218.5 329 L 255 365.5 L 264 375.5 L 264 377.5 L 215.5 425 L 203 412.5 L 203 410.5 L 237 375.5 L 203 341.5 L 204 340.5 L 215.5 328 Z " /></svg>